<?xml version="1.0" encoding="utf-8"?>
<!-- Generator: Adobe Illustrator 16.0.4, SVG Export Plug-In . SVG Version: 6.00 Build 0)  -->
<!DOCTYPE svg PUBLIC "-//W3C//DTD SVG 1.1//EN" "http://www.w3.org/Graphics/SVG/1.1/DTD/svg11.dtd">
<svg version="1.1" id="Layer_2" xmlns="http://www.w3.org/2000/svg" xmlns:xlink="http://www.w3.org/1999/xlink" x="0px" y="0px"
	 width="203.767px" height="288.183px" viewBox="0 0 203.767 288.183" enable-background="new 0 0 203.767 288.183"
	 xml:space="preserve">
<path fill="none" stroke="#231F20" stroke-width="7" stroke-linecap="round" stroke-linejoin="round" stroke-miterlimit="10" d="
	M38.442,12.661c0,0,56.382,54.776,35.917,92.297c0,0-9.59,13.736-27.959,10.412c-25.37-4.591-18.477-35.683-4.546-34.867
	c22.574,1.321,50.026,31.835,56.848,103.088c0,0-14.4,9.852-56.09,0c0,0,21.224,72.768,32.593,95.506"/>
<path fill="none" stroke="#231F20" stroke-width="7" stroke-linecap="round" stroke-linejoin="round" stroke-miterlimit="10" d="
	M168.995,12.661c0,0-56.382,54.776-35.916,92.297c0,0,9.59,13.736,27.959,10.412c25.369-4.591,18.477-35.683,4.546-34.867
	c-22.573,1.321-50.026,31.835-56.848,103.088c0,0,14.4,9.852,56.091,0c0,0-21.225,72.768-32.594,95.506"/>
</svg>
